<?xml version="1.0" encoding="utf-8"?>
<!-- Generator: Adobe Illustrator 16.0.0, SVG Export Plug-In . SVG Version: 6.00 Build 0)  -->
<!DOCTYPE svg PUBLIC "-//W3C//DTD SVG 1.1//EN" "http://www.w3.org/Graphics/SVG/1.1/DTD/svg11.dtd">
<svg version="1.1" id="Layer_1" xmlns="http://www.w3.org/2000/svg" xmlns:xlink="http://www.w3.org/1999/xlink" x="0px" y="0px"
	 width="500px" height="500px" viewBox="0 0 500 500" enable-background="new 0 0 500 500" xml:space="preserve">
<path fill="#B3B3B3" d="M203.563,244.138c0-40.596,17.722-77.038,45.831-102.064c-24.142-21.494-55.94-34.574-90.807-34.574
	c-75.463,0-136.638,61.175-136.638,136.638c0,75.464,61.175,136.639,136.638,136.639c34.867,0,66.665-13.079,90.807-34.573
	C221.285,321.176,203.563,284.734,203.563,244.138z"/>
<path fill="#CCCCCC" d="M340.201,107.5c-34.867,0-66.666,13.08-90.808,34.574c28.108,25.026,45.83,61.468,45.83,102.064
	c0,40.597-17.722,77.038-45.83,102.065c24.142,21.494,55.94,34.573,90.808,34.573c75.462,0,136.637-61.175,136.637-136.639
	C476.838,168.675,415.663,107.5,340.201,107.5z"/>
<path fill="#999999" d="M295.224,244.138c0-40.596-17.722-77.038-45.83-102.064c-28.108,25.026-45.831,61.468-45.831,102.064
	c0,40.597,17.722,77.038,45.831,102.065C277.502,321.176,295.224,284.734,295.224,244.138z"/>
</svg>
