<svg xmlns="http://www.w3.org/2000/svg" width="500" height="500" viewBox="0 0 500 500"><path fill="#B3B3B3" d="M203.563 244.138c0-40.596 17.722-77.038 45.831-102.064-24.142-21.494-55.94-34.574-90.807-34.574-75.463 0-136.638 61.175-136.638 136.638 0 75.464 61.175 136.639 136.638 136.639 34.867 0 66.665-13.079 90.807-34.573-28.109-25.028-45.831-61.47-45.831-102.066z"/><path fill="#CCC" d="M340.201 107.5c-34.867 0-66.666 13.08-90.808 34.574 28.108 25.026 45.83 61.468 45.83 102.064 0 40.597-17.722 77.038-45.83 102.065 24.142 21.494 55.94 34.573 90.808 34.573 75.462 0 136.637-61.175 136.637-136.639 0-75.462-61.175-136.637-136.637-136.637z"/><path fill="#999" d="M295.224 244.138c0-40.596-17.722-77.038-45.83-102.064-28.108 25.026-45.831 61.468-45.831 102.064 0 40.597 17.722 77.038 45.831 102.065 28.108-25.027 45.83-61.469 45.83-102.065z"/></svg>